<?xml version="1.0" encoding="utf-8"?>
<!-- Generator: Adobe Illustrator 16.2.0, SVG Export Plug-In . SVG Version: 6.00 Build 0)  -->
<!DOCTYPE svg PUBLIC "-//W3C//DTD SVG 1.1//EN" "http://www.w3.org/Graphics/SVG/1.1/DTD/svg11.dtd">
<svg version="1.1" id="Слой_1" xmlns="http://www.w3.org/2000/svg" xmlns:xlink="http://www.w3.org/1999/xlink" x="0px" y="0px"
	 width="20px" height="20px" viewBox="0 0 20 20" enable-background="new 0 0 20 20" xml:space="preserve">
<circle fill="#FFFFFF" cx="9.999" cy="9.999" r="9.999"/>
<path fill-rule="evenodd" clip-rule="evenodd" fill="#103552" d="M9.715,10.376c1.376-1.997,2.723-4.097,4.226-6.074
	c0.809-1.062,1.847-1.956,2.857-2.833c0.35-0.303,0.927-0.445,1.403-0.454c0.73-0.013,0.972,0.566,0.515,1.135
	c-0.894,1.112-1.855,2.169-2.72,3.305c-1.832,2.402-3.35,5.005-4.573,7.788c-0.508,1.154-1.908,1.937-3.156,1.743
	c-0.162-0.025-0.367-0.191-0.438-0.348c-0.929-2.059-2.147-3.92-3.626-5.602C3.834,8.617,3.868,8.215,4.287,7.976
	c0.662-0.377,1.367-0.72,2.095-0.91C6.689,6.985,7.214,7.231,7.45,7.502C8.28,8.459,9.028,9.492,9.715,10.376z"/>
</svg>
